<svg id="visual" viewBox="0 0 960 540" width="960" height="540" xmlns="http://www.w3.org/2000/svg" xmlns:xlink="http://www.w3.org/1999/xlink" version="1.1"><rect x="0" y="0" width="960" height="540" fill="#f9f7ef"></rect><defs><linearGradient id="grad1_0" x1="43.8%" y1="0%" x2="100%" y2="100%"><stop offset="14.444444444444446%" stop-color="#f9f7ef" stop-opacity="1"></stop><stop offset="85.55555555555554%" stop-color="#f9f7ef" stop-opacity="1"></stop></linearGradient></defs><defs><linearGradient id="grad2_0" x1="0%" y1="0%" x2="56.3%" y2="100%"><stop offset="14.444444444444446%" stop-color="#f9f7ef" stop-opacity="1"></stop><stop offset="85.55555555555554%" stop-color="#f9f7ef" stop-opacity="1"></stop></linearGradient></defs><g transform="translate(960, 0)"><path d="M0 189C-26.4 185.4 -52.7 181.9 -69.3 167.2C-85.8 152.6 -92.6 126.9 -111 111C-129.5 95.2 -159.7 89.2 -174.6 72.3C-189.6 55.5 -189.3 27.7 -189 0L0 0Z" fill="#c5d7ba"></path></g><g transform="translate(0, 540)"><path d="M0 -189C26.3 -188.3 52.5 -187.5 72.3 -174.6C92.1 -161.7 105.4 -136.6 116 -116C126.5 -95.3 134.3 -79.1 146 -60.5C157.7 -41.9 173.3 -20.9 189 0L0 0Z" fill="#c5d7ba"></path></g></svg>