<svg id="visual" viewBox="0 0 900 675" width="900" height="675" xmlns="http://www.w3.org/2000/svg" xmlns:xlink="http://www.w3.org/1999/xlink" version="1.1"><rect x="0" y="0" width="900" height="675" fill="#f9f7ef"></rect><defs><linearGradient id="grad1_0" x1="25%" y1="0%" x2="100%" y2="100%"><stop offset="23.333333333333336%" stop-color="#f9f7ef" stop-opacity="1"></stop><stop offset="76.66666666666666%" stop-color="#f9f7ef" stop-opacity="1"></stop></linearGradient></defs><defs><linearGradient id="grad2_0" x1="0%" y1="0%" x2="75%" y2="100%"><stop offset="23.333333333333336%" stop-color="#f9f7ef" stop-opacity="1"></stop><stop offset="76.66666666666666%" stop-color="#f9f7ef" stop-opacity="1"></stop></linearGradient></defs><g transform="translate(900, 0)"><path d="M0 196.9C-23.6 191 -47.3 185.2 -73.5 177.4C-99.7 169.6 -128.4 159.9 -139.2 139.2C-150.1 118.6 -143 87 -149.7 62C-156.3 37 -176.6 18.5 -196.9 0L0 0Z" fill="#c5d7ba"></path></g><g transform="translate(0, 675)"><path d="M0 -196.9C23.4 -183.1 46.8 -169.4 64.3 -155.2C81.8 -141 93.4 -126.3 114.6 -114.6C135.7 -102.8 166.6 -93.9 181.9 -75.3C197.2 -56.7 197 -28.4 196.9 0L0 0Z" fill="#c5d7ba"></path></g></svg>